<svg width="82" height="76" viewBox="0 0 82 76" fill="none" xmlns="http://www.w3.org/2000/svg">
<path d="M28.5 0.0568848C5.96563 0.0568848 9.75 21.9319 12.875 25.0569C12.7687 20.1225 13.4188 15.6944 16 12.5569C16.6844 13.4819 17.4199 14.1999 19.0762 15.5842C18.9793 8.06548 24.8563 6.23188 28.5 6.30688C33.9688 6.41938 37.875 12.5569 34.75 18.8069L42.4465 26.5034C53.2403 15.5972 44.125 0.0568848 28.5 0.0568848ZM25.375 12.5569C23.2438 18.7944 24.75 23.2413 25.375 25.0569C21.875 23.6163 18.7906 21.4631 16 18.8069C15.6656 21.9506 15.6406 25.0788 16 28.1819C12.4187 30.1506 9.27187 32.2288 6.625 34.4319H12.875V40.6819C16 37.5569 19.125 34.4319 25.375 31.3069C22.9656 34.0881 20.9031 37.235 19.125 40.6819C21.9906 39.7881 24.5281 39.5569 25.375 40.6819L28.5 43.8069C29.3594 44.8788 29.3781 46.9413 28.5 50.0569L34.75 46.9319C31.625 43.8069 28.5 40.6819 28.5 37.5569H31.625C34.2406 37.5569 38.9181 38.6 40.7681 40.45L44.125 43.8069L47.25 37.5569C44.75 37.9569 42.6781 36.8725 41 34.4319V31.3069L28.5 18.8069C26.7344 17.1756 25.8719 14.9256 25.375 12.5569ZM69.125 25.0569C65.2656 26.3038 62.5625 28.5663 59.75 31.3069V28.1819C56.3531 31.185 54.5597 33.8526 53.616 37.2151C51.2066 39.7526 49.0378 42.6488 46.9753 45.5769L51.4492 48.4395C53.8398 40.952 58.4122 36.698 63.2778 34.2793C66.8122 34.4793 70.2625 35.5694 72.25 37.5569C75.1688 34.6381 76.5712 32.1409 80.74 31.4534C81.215 31.5065 81.5273 31.551 81.5273 31.551C81.3742 31.4885 81.2379 31.4486 81.0879 31.3923C81.2723 31.3673 81.4313 31.3256 81.625 31.3069L79.6658 30.8857C74.6158 29.1264 70.2995 28.7907 66.5432 29.5063C67.1651 27.8188 68.0375 26.3475 69.125 25.0569ZM33.1875 31.3069C34.05 31.3069 34.75 32.0069 34.75 32.8694C34.75 33.7319 34.05 34.4319 33.1875 34.4319C32.325 34.4319 31.625 33.7319 31.625 32.8694C31.625 32.0069 32.325 31.3069 33.1875 31.3069ZM34.75 40.6819L36.8801 42.812C37.5176 43.4495 37.875 44.3107 37.875 45.2107V48.5798C37.875 49.5142 38.3156 50.3943 39.0469 50.9724C44.1781 55.038 48.6188 57.5256 50.375 62.5569C50.5719 67.4225 49.9625 68.3538 53.5 71.9319C53.1813 68.5788 52.9094 68.4975 53.5 65.6819C57.025 73.4506 62.2898 76.3699 72.1523 74.5137C70.5555 73.8293 69.6937 73.2788 69.125 71.9319C80.5187 70.2194 81.1375 56.2569 72.25 53.1819C74.7906 59.8038 68.3781 62.7225 62.875 62.5569C67.3031 59.0225 65.4219 55.4756 62.875 53.1819C61.3781 56.8756 57.0156 55.3756 53.5 53.1819L44.125 46.9319C43.0344 46.2194 41.8594 47.5444 41 46.9319C39.1625 45.5944 41.7344 42.1038 34.75 40.6819ZM9.75 40.7673C3.0125 46.083 0.375 53.1819 0.375 53.1819H5.31274C4.64399 55.4006 1.8375 65.9256 6.625 71.9319C6.975 69.5788 7.86089 67.6092 8.64526 66.2373C12.3859 71.7186 18.75 75.0569 25.375 75.0569C35.6438 75.0569 40.5153 69.6378 45.3091 60.616L39.5596 54.8665C35.2096 60.8821 30.9969 64.935 25.375 62.5569C16.0094 58.5944 20.2659 48.8381 23.2815 43.8069L16 46.9319V43.8069L9.75 46.9319V40.7673Z" fill="#F7FAFA"/>
</svg>
