<svg width="64" height="64" viewBox="0 0 64 64" fill="none" xmlns="http://www.w3.org/2000/svg">
<path d="M32.0396 0C30.4773 0.749504 3.76264 14.0143 0.422649 15.6526C0.146256 15.7589 -0.0211252 16.005 0.00215 16.2658C0.00796881 19.6614 0.00783243 47.7934 0.00783243 47.9023C-0.00671457 48.072 0.0974329 48.2344 0.274906 48.3079C0.295272 48.318 20.2487 58.2926 31.6419 64H32.0737C33.6623 63.2125 60.4452 49.9256 63.5146 48.4266C63.8346 48.2974 64.0238 48.0109 63.9976 47.7045C63.986 37.2722 63.986 26.839 63.9976 16.4092C63.9976 16.0218 63.8997 15.7351 63.4691 15.5883C63.3906 15.5604 32.3246 0.017725 32.2897 0H32.0396ZM33.0341 2.30461C42.4314 7.0042 51.7903 11.6776 61.1848 16.3746C60.1141 16.7392 46.408 21.2212 46.3935 21.2212C46.2887 21.2542 46.2503 21.3005 46.2968 21.3993C46.4045 21.6297 46.5078 21.8635 46.598 22.1015C46.6475 22.2357 46.7166 22.2635 46.8708 22.2103C47.2257 22.0888 61.8126 17.3133 62.0599 17.25V46.0527C62.0512 46.0451 52.001 30.8773 50.9507 29.2973C50.7966 29.0669 50.7899 29.0662 50.5018 29.1143C49.4835 29.289 49.8674 29.2088 49.5415 29.2923C53.4197 35.1466 57.3089 41.0139 61.2075 46.8934H34.3922C34.2176 46.8934 34.1193 46.8806 34.1251 46.6907C34.1251 46.678 34.0001 43.3503 34.0001 43.3376C34.003 43.1958 33.9384 43.1517 33.7842 43.1695C32.664 43.3442 31.5205 43.3584 30.3974 43.209C30.2403 43.1862 30.1985 43.2432 30.1985 43.3673V44.7471C30.1985 44.8382 30.1788 44.9057 30.0508 44.8905C27.5836 44.5765 28.0808 44.9137 24.124 40.761C23.7342 40.3609 23.3884 39.9347 23.016 39.5296C23.0072 39.5245 22.9991 39.5174 22.9932 39.5098C22.9176 39.4313 22.9287 39.3184 23.016 39.2526C24.235 37.9714 25.2947 37.0006 25.1696 35.1775C25.094 34.0634 24.4797 33.2029 23.3683 32.6256C21.9368 31.8837 20.1574 32.0223 15.322 32.0223C14.7808 32.0223 14.6531 32.5015 15.0663 32.6256C15.2321 32.6737 15.5679 32.6645 15.7425 32.6948C16.464 32.8164 16.5153 33.0341 16.5153 34.3862C16.5269 43.1878 16.5424 42.6052 16.3562 44.3119C16.2834 44.9677 15.8728 44.7696 15.4015 44.8658C15.2648 44.8835 15.1495 44.9718 15.1117 45.0883C15.0623 45.2504 15.1699 45.4162 15.3561 45.4592C15.6528 45.5352 19.9649 45.5222 20.1918 45.4741C20.6748 45.3677 20.5689 44.8888 20.1179 44.8559C19.0385 44.7799 18.8014 44.8044 18.7257 44.2575C18.6035 43.3333 18.6244 43.454 18.5837 40.1774C18.5808 39.9495 18.5892 39.9499 18.8394 39.9499C20.7509 39.9499 20.9143 39.8618 21.243 40.2467C22.2817 41.4697 23.3264 42.6886 24.3854 43.8965C25.4241 45.0815 26.3833 45.4764 27.4539 45.484C30.4303 45.5068 30.0906 45.4405 30.0906 45.6076V46.7154C30.0877 46.8927 30.0528 46.9231 29.8462 46.9231H3.06498C2.79731 46.9231 2.76676 46.9544 2.88314 46.7797C7.34616 40.0367 6.65686 41.0763 12.5717 32.1607C12.6706 32.0113 12.6588 31.9928 12.458 31.9827C11.5794 31.9321 11.3838 31.8236 11.1511 32.1756C11.1423 32.1857 2.06496 45.8705 1.93986 46.0478V17.245C2.31808 17.3362 5.77231 18.4963 5.78686 18.4963C6.12144 18.6051 6.21263 18.6028 7.32111 17.8533L2.88882 16.3994C2.883 16.3842 2.87177 16.37 2.87177 16.3548C12.1644 11.7464 21.457 7.14054 30.7554 2.53211L30.7895 2.55189L30.7782 2.55683C26.6672 8.74531 22.5419 14.9527 18.4018 21.1817C18.8877 21.1817 19.3097 21.192 19.7315 21.1718C19.9905 21.1566 30.6879 4.71649 31.9942 2.88324C33.2161 4.69116 43.6313 20.4423 43.7739 20.6525C43.9659 20.9437 44.094 21.0307 45.4672 21.1421L45.507 21.1025L33.0341 2.30461ZM31.7896 10.801C30.6948 10.9049 29.696 11.6718 29.7269 12.8287C29.7473 13.6187 30.1968 14.1999 30.9998 14.5646C31.1569 14.6228 31.2531 14.7663 31.2327 14.9157C31.1746 15.7867 31.1896 15.1739 31.0907 18.61C31.0849 18.8303 31.0766 18.8375 30.8293 18.8375C26.4448 18.8096 26.2851 18.8585 25.4821 18.5952C25.197 18.5015 25.046 18.5692 24.9878 18.8325C24.8248 19.5846 24.6674 20.3333 24.5161 21.0828C24.4899 21.2195 24.7325 21.8254 25.0787 21.0531C25.5762 19.944 26.2114 20.0556 30.8577 19.9898C30.9624 19.9898 31.0567 19.999 31.0509 20.1332C30.9491 21.9133 30.5313 34.5972 30.5168 35.3011C30.5342 35.4607 30.413 35.6046 30.2326 35.6325C28.5626 36.0959 26.7052 37.7743 27.3744 40.1824C28.2181 43.2234 31.8826 43.1055 32.2783 43.0903C36.5057 42.9207 37.1104 39.9202 36.9038 38.4465C36.7554 37.3881 36.1698 36.5749 35.1195 36.0331C34.7151 35.8432 34.2971 35.6755 33.8694 35.5286C33.7705 35.4881 33.6932 35.4472 33.6932 35.3358C33.6932 35.3206 33.1591 20.0891 33.1591 20.0739C33.1591 19.9853 33.1993 19.9552 33.3011 19.9552C39.8124 20.2464 38.2024 20.2483 38.9211 21.4586C39.0229 21.6333 39.1652 21.6506 39.2961 21.4784C39.427 21.3062 39.4154 18.9392 39.4154 18.9265C39.4067 18.7113 39.2876 18.6462 39.0461 18.6842C38.7842 18.7374 38.5182 18.7703 38.2505 18.788L38.2562 18.7979C36.6066 18.8334 33.3214 18.8474 33.3068 18.8474C33.1905 18.8474 33.1307 18.8203 33.1307 18.7089C32.9736 14.4145 32.9886 15.0237 32.9886 14.9503C32.9595 14.73 33.0828 14.5176 33.3068 14.4113C34.491 13.7554 34.6425 12.2884 33.6591 11.3895C33.1387 10.9129 32.4465 10.7387 31.7896 10.801ZM31.9999 11.8495C33.4429 11.852 33.3763 13.7242 31.9885 13.709C30.6007 13.6938 30.5888 11.8544 31.9999 11.8544V11.8495ZM11.6398 17.4676C11.0218 17.4963 10.3687 17.5688 9.65659 17.7099C5.37395 18.5556 3.49048 21.9986 3.88324 25.2321C4.83753 33.2487 17.067 31.6362 17.2881 30.4891C17.291 30.4638 17.5206 29.4527 17.7825 28.0955C17.7941 28.0525 17.794 28.01 17.7881 27.9669C17.759 27.7821 17.563 27.6498 17.3506 27.6751C16.5127 27.7081 17.6952 29.9813 13.782 30.232C8.45491 30.5738 5.97051 26.8625 6.01415 23.872C6.12471 16.61 16.2859 17.894 16.7369 20.697C16.7922 21.0515 16.7232 21.8197 17.3051 21.607C17.4419 21.5563 17.5323 21.4443 17.5381 21.3152C17.5497 21.2114 17.6909 19.0475 17.7199 18.4221C17.7374 18.0752 17.5928 17.9606 17.1972 17.9226C15.0631 17.7118 13.4935 17.3814 11.6398 17.4676ZM50.3768 21.3943C50.3106 21.4045 50.2485 21.4364 50.2064 21.4883C50.0114 21.6681 50.1681 21.4242 47.5583 26.691C47.3692 27.0784 47.1827 27.4537 46.9674 27.8285C46.8074 28.107 46.4785 28.2739 46.1207 28.2587C45.7832 28.2663 45.8097 28.6593 46.2287 28.6593H50.0131C50.5688 28.6593 50.3471 28.2653 49.9165 28.1944C49.2939 28.0881 47.9831 28.325 48.1664 27.9224C48.3729 27.459 48.5872 27.0008 48.8142 26.5476C48.8636 26.4767 48.9511 26.4291 49.0471 26.419C49.7454 26.3861 50.4457 26.3787 51.144 26.4091C51.2778 26.4015 51.3988 26.4757 51.4338 26.5871C51.6258 27.0125 51.8182 27.4427 52.0247 27.8631C52.2924 28.4075 51.7122 28.4844 52.0759 28.5604C52.2446 28.606 52.4212 28.6392 52.5987 28.6544C53.0147 28.6645 51.0448 28.6358 59.8835 28.689C60.6691 28.694 60.4704 28.2895 60.645 27.3982L60.6336 27.3932C60.6918 27.1021 60.3323 26.6963 60.0938 27.418C59.9396 27.8991 59.7008 27.8965 57.7981 27.8433C57.5799 27.8585 57.3758 27.724 57.3321 27.5367C57.2652 27.248 57.2836 22.5909 57.2923 22.3884C57.2894 22.3732 57.2923 22.3541 57.2923 22.3389C57.3011 22.1617 57.4694 22.0247 57.6731 22.0323C58.6128 21.9462 58.1838 21.602 57.8492 21.602C54.6052 21.5894 54.7643 21.5965 54.7352 21.6218C54.3803 21.9257 54.7088 22.0026 54.7466 22.0026C55.2063 22.0685 55.5421 21.9797 55.5421 22.5367C55.5451 27.839 55.5481 27.462 55.5365 27.6949C55.5161 28.0925 55.4577 28.2442 54.9398 28.229C54.8496 28.229 54.313 28.3136 54.0249 27.9768C53.2743 27.0754 51.0544 21.9061 50.6325 21.4883C50.6151 21.468 50.5962 21.4491 50.57 21.4339C50.5104 21.3972 50.443 21.3842 50.3768 21.3943ZM43.1261 21.4735C41.9012 21.4652 40.4718 21.6878 39.4666 22.5664C38.0526 23.7996 37.4383 26.8363 40.4553 28.234C42.3639 29.1177 44.9192 28.6797 45.149 28.6544C46.0916 28.548 46.007 27.0746 46.007 27.0619C45.8819 26.6947 45.7356 26.7614 45.5581 26.9234C45.4098 27.0576 45.4189 27.6425 44.5694 27.873C43.5831 28.1414 41.2649 28.0789 40.4212 26.1519C39.6095 24.306 40.5516 21.4063 44.325 22.3735C44.9738 22.5407 45.3551 22.9158 45.4104 23.516C45.4395 23.8147 45.7974 23.8291 45.8934 23.5506C45.9225 23.4645 45.9264 23.0023 45.9729 22.3389C45.9991 21.9768 45.8988 21.8313 45.5468 21.7554H45.5411C45.368 21.7174 44.3509 21.4817 43.1261 21.4735ZM29.2382 21.6169L26.4993 21.6268C26.0251 21.7635 26.0286 22.0041 26.5959 22.0471C27.009 22.0775 27.0618 22.1913 27.0618 22.8978C27.0357 28.5596 27.0373 27.5439 26.9937 27.9719C26.9878 28.1213 26.8471 28.2415 26.6754 28.2389C26.1401 28.2845 25.636 28.1902 25.2548 27.8433C23.7652 26.4861 22.9084 25.5297 22.7716 25.3854C23.08 25.0967 23.37 24.8257 23.6581 24.5446C24.9208 23.2938 23.7757 21.85 22.5159 21.7158C21.4511 21.6018 19.902 21.6141 18.2029 21.6268C17.9149 21.6293 17.3554 21.956 18.3621 22.0471C18.7636 22.0826 18.8394 22.2374 18.8394 22.6653C18.8365 22.9261 18.7993 24.4618 18.811 27.6801C18.8168 28.5613 18.3104 27.9782 17.97 28.4466C18.0194 28.5884 18.179 28.6819 18.3507 28.6692H21.1464C21.6891 28.663 21.69 28.2165 21.0157 28.229C20.4426 28.2442 20.5669 28.0819 20.4418 26.0233C20.4273 25.7752 21.3882 25.7944 21.6181 26.0678C23.1601 27.896 23.5625 28.6692 25.0957 28.6692C26.5853 28.6616 28.0725 28.6744 29.5621 28.6642C30.1178 28.6592 29.92 28.2389 29.5621 28.2389C28.8668 28.2491 28.8436 28.0707 28.8291 27.9669C28.7796 27.6428 28.7344 28.108 28.7723 22.6159C28.781 22.1626 28.8283 22.0702 29.3462 22.0372C29.3578 22.0372 29.3803 22.0423 29.3803 22.0372C29.8836 21.6802 29.2848 21.6169 29.2382 21.6169ZM34.5513 21.6268C34.2982 21.6318 34.125 21.863 34.4945 22.0175C34.7039 22.1036 35.1707 21.9111 35.1707 22.5466C35.1474 28.4388 35.3279 28.2389 34.682 28.2389C34.1961 28.2415 34.1292 28.6593 34.682 28.6593C35.8196 28.6669 36.8536 28.6692 37.7846 28.6692C38.157 28.6667 38.1713 28.2516 37.7959 28.2389C37.345 28.2237 36.9409 28.3028 36.9322 27.7938H36.9265C36.8189 22.522 36.9322 22.3445 36.9322 22.3191C36.9729 21.9748 37.3863 22.0734 37.5289 22.0076C37.8576 21.8556 37.731 21.73 37.5914 21.6515C37.4517 21.5755 34.7375 21.6268 34.5513 21.6268ZM20.7714 22.334C21.2933 22.2381 22.3689 22.4292 22.55 23.4813C22.6024 23.7751 22.7549 25.3276 20.7998 25.1529C20.5467 25.1301 20.493 25.0568 20.493 24.8315C20.4842 24.2187 20.4931 23.0692 20.4873 22.5071C20.4858 22.4324 20.5974 22.3659 20.7714 22.334ZM50.1098 23.6495L50.9848 25.6277H49.2119C49.5116 24.9693 49.7984 24.3357 50.1098 23.6495ZM19.6065 32.952C20.144 32.9621 20.7183 33.0488 20.8623 33.0855C23.0356 33.6375 23.5135 36.1341 22.6523 37.942C21.986 39.3246 20.6284 38.9989 18.9701 38.852C18.6268 38.8267 18.578 38.7799 18.578 38.4811C18.578 34.7285 18.581 34.2811 18.5723 33.2784C18.5679 33.0113 19.069 32.9419 19.6065 32.952ZM50.8598 34.9401C49.5564 35.0693 50.6767 34.999 45.5184 35.0192C44.9714 35.0218 44.9955 35.4446 45.6036 35.4446L45.615 35.4544C46.1677 35.4544 46.521 34.8422 46.1718 41.8688C46.1486 42.2562 45.738 42.1675 45.5809 42.1903C45.2317 42.246 45.1569 42.5572 45.5468 42.6205C45.6428 42.6357 45.2683 42.6499 50.6041 42.6601C51.25 42.6601 51.269 42.404 51.269 42.3584C51.3242 41.9558 51.3868 41.5518 51.4508 41.1517C51.4974 40.858 51.1098 40.7862 50.9905 41.0825C50.6996 41.7965 51.0209 41.8554 48.6323 41.7946C47.9632 41.7769 48.0754 41.2939 48.0754 39.762C48.0754 38.6934 47.7139 38.9038 49.9279 39.0152C50.4603 39.0431 50.2933 39.4272 50.4621 39.6779C50.561 39.8273 50.7558 39.8004 50.8314 39.6384C50.8896 39.5092 50.9962 38.2394 50.9962 38.2141C51.0282 37.7709 50.6256 37.9712 50.5587 37.9915C49.7848 38.2245 48.7508 38.154 48.3027 38.1844C48.07 38.1996 48.0698 38.2015 48.0698 37.9964V35.9836C48.0698 35.7937 48.0758 35.7831 48.3027 35.7907C50.2404 35.8692 50.4977 35.7653 50.553 36.4287C50.5821 36.7731 51.0068 36.7194 51.0417 36.4485C51.0911 36.0256 51.1459 35.6004 51.1837 35.1775C51.2012 34.9724 51.1013 34.9173 50.8598 34.9401ZM41.4782 35.0143C40.7421 35.0118 38.3691 35.0167 38.1596 35.0192C37.8221 35.0192 37.7535 35.3717 38.1085 35.4198C38.5216 35.4755 38.8889 35.4137 38.9267 35.8847C38.9588 36.2797 39.0182 39.8763 38.8756 41.8589C38.8494 42.259 38.4249 42.1493 38.1369 42.21C37.9012 42.2581 37.923 42.6025 38.1994 42.6304L43.6829 42.6551C43.8546 42.6551 44.4768 42.8088 44.4273 41.1072C44.4273 41.0768 44.2971 40.6926 44.0352 40.9737C43.4825 41.5611 44.49 41.9169 41.3304 41.7649C41.0016 41.7497 40.8506 41.5961 40.836 41.3099C40.7517 39.7603 40.7792 36.3777 40.7792 36.127C40.7792 35.3902 41.1256 35.4851 41.5009 35.4446C42.0042 35.3914 41.9495 35.0143 41.4782 35.0143ZM30.4599 36.2408C30.5007 36.4915 30.3125 40.9158 30.3008 41.1665C30.2485 42.2123 33.97 42.7362 33.9205 41.4929C33.9176 41.4347 33.7671 36.8677 33.7671 36.6018V36.5969L33.8182 36.582C35.5813 37.7721 35.3008 40.4885 34.5967 41.4583C33.9276 42.4079 32.5559 42.7867 31.3805 42.3436C28.3838 41.2699 28.435 37.1701 30.4599 36.2408ZM34.3808 47.9765C62.0696 47.9866 60.4314 47.958 60.4518 48.0111C58.2377 49.1278 34.5431 60.8532 32.1022 62.0762C31.9596 62.1598 31.7731 62.1598 31.6305 62.0762H31.6192C29.0822 60.8025 3.8436 48.184 3.47411 47.9815H29.7496C30.0377 47.9815 30.0394 47.9856 30.0394 48.2287C29.9347 52.2117 29.8468 53.9213 29.8235 54.2276C29.7973 54.691 29.8923 55.1549 30.1076 55.5778C30.7244 56.8616 31.3124 58.1637 31.9146 59.4551C32.0601 59.7412 32.0997 59.6802 32.2044 59.465C34.1974 55.3731 34.0636 55.6622 34.1421 55.4344C34.2585 55.1204 34.3208 54.7966 34.3354 54.47C34.3412 53.7357 34.1592 48.187 34.1592 48.1743C34.1534 48.0249 34.2062 47.9765 34.3808 47.9765Z" fill="#FF0000"/>
</svg>
