<svg width="33" height="33" viewBox="0 0 33 33" fill="none" xmlns="http://www.w3.org/2000/svg">
<path d="M16.1846 0.648071C15.4034 1.02282 2.04612 7.65522 0.37612 8.47436C0.237923 8.52753 0.154232 8.65058 0.16587 8.78098C0.168779 10.4788 0.168711 24.5448 0.168711 24.5992C0.161438 24.6841 0.213511 24.7653 0.302248 24.802C0.312431 24.8071 10.2891 29.7944 15.9857 32.6481H16.2017C16.9959 32.2543 30.3874 25.6109 31.9221 24.8613C32.0821 24.7968 32.1767 24.6535 32.1636 24.5003C32.1578 19.2842 32.1578 14.0676 32.1636 8.85269C32.1636 8.65899 32.1147 8.51565 31.8994 8.44221C31.8601 8.42829 16.3271 0.656934 16.3096 0.648071H16.1846ZM16.6818 1.80038C21.3805 4.15017 26.06 6.48685 30.7572 8.83538C30.2219 9.01769 23.3688 11.2587 23.3615 11.2587C23.3092 11.2751 23.2899 11.2983 23.3132 11.3477C23.367 11.4629 23.4187 11.5798 23.4638 11.6988C23.4885 11.7659 23.5231 11.7798 23.6002 11.7532C23.7777 11.6925 31.0711 9.30471 31.1947 9.27306V23.6744C31.1904 23.6706 26.1653 16.0867 25.6402 15.2967C25.5631 15.1815 25.5597 15.1812 25.4157 15.2052C24.9066 15.2926 25.0985 15.2525 24.9355 15.2942C26.8747 18.2214 28.8193 21.155 30.7686 24.0948H17.3609C17.2736 24.0948 17.2244 24.0884 17.2273 23.9934C17.2273 23.9871 17.1648 22.3232 17.1648 22.3169C17.1663 22.246 17.134 22.2239 17.0569 22.2328C16.4968 22.3202 15.925 22.3273 15.3635 22.2526C15.285 22.2412 15.2641 22.2697 15.2641 22.3317V23.0216C15.2641 23.0672 15.2542 23.1009 15.1902 23.0933C13.9566 22.9363 14.2052 23.1049 12.2268 21.0286C12.0319 20.8285 11.859 20.6154 11.6728 20.4129C11.6684 20.4103 11.6643 20.4068 11.6614 20.403C11.6236 20.3637 11.6291 20.3073 11.6728 20.2744C12.2823 19.6338 12.8121 19.1484 12.7496 18.2368C12.7118 17.6798 12.4046 17.2495 11.8489 16.9609C11.1332 16.5899 10.2435 16.6592 7.82578 16.6592C7.5552 16.6592 7.49136 16.8988 7.69792 16.9609C7.78084 16.9849 7.94874 16.9803 8.03603 16.9955C8.39679 17.0563 8.42243 17.1651 8.42243 17.8412C8.42825 22.242 8.43598 21.9507 8.34288 22.804C8.30651 23.1319 8.10121 23.0328 7.86555 23.081C7.79718 23.0898 7.73956 23.134 7.72065 23.1922C7.69592 23.2733 7.74972 23.3562 7.84282 23.3777C7.9912 23.4157 10.1472 23.4092 10.2607 23.3851C10.5022 23.3319 10.4492 23.0925 10.2238 23.076C9.68406 23.038 9.56548 23.0503 9.52766 22.7768C9.46656 22.3147 9.477 22.3751 9.45663 20.7368C9.45518 20.6228 9.45938 20.623 9.58448 20.623C10.5402 20.623 10.6219 20.579 10.7863 20.7714C11.3056 21.3829 11.828 21.9924 12.3575 22.5963C12.8768 23.1888 13.3564 23.3863 13.8918 23.3901C15.3799 23.4014 15.2101 23.3683 15.2101 23.4519V24.0058C15.2086 24.0944 15.1912 24.1096 15.0879 24.1096H1.69728C1.56345 24.1096 1.54818 24.1253 1.60636 24.0379C3.83787 20.6664 3.49322 21.1862 6.45063 16.7284C6.50009 16.6537 6.49418 16.6445 6.39381 16.6394C5.95449 16.6141 5.8567 16.5599 5.74033 16.7359C5.73596 16.7409 1.19728 23.5833 1.13472 23.6719V9.27059C1.32383 9.31617 3.05095 9.8962 3.05822 9.8962C3.22551 9.95064 3.27111 9.94949 3.82535 9.57474L1.60921 8.84775C1.6063 8.84015 1.60068 8.83309 1.60068 8.82549C6.24699 6.52127 10.8933 4.21834 15.5425 1.91412L15.5596 1.92402L15.5539 1.92649C13.4984 5.02072 11.4358 8.12441 9.36571 11.2389C9.60865 11.2389 9.81962 11.2441 10.0306 11.234C10.16 11.2264 15.5087 3.00631 16.1619 2.08969C16.7729 2.99365 21.9804 10.8692 22.0517 10.9743C22.1477 11.1199 22.2118 11.1634 22.8984 11.2191L22.9183 11.1993L16.6818 1.80038ZM16.0596 6.04858C15.5122 6.1005 15.0128 6.48399 15.0282 7.06241C15.0384 7.45742 15.2632 7.74804 15.6647 7.93035C15.7432 7.95947 15.7914 8.03122 15.7812 8.10592C15.7521 8.54144 15.7596 8.23504 15.7101 9.95307C15.7072 10.0632 15.7031 10.0668 15.5794 10.0668C13.3872 10.0529 13.3074 10.0773 12.9059 9.94565C12.7633 9.89881 12.6878 9.93268 12.6587 10.0643C12.5772 10.4404 12.4985 10.8147 12.4229 11.1895C12.4098 11.2578 12.531 11.5608 12.7041 11.1746C12.9529 10.6201 13.2705 10.6759 15.5936 10.643C15.646 10.643 15.6932 10.6476 15.6902 10.7147C15.6393 11.6047 15.4304 17.9467 15.4232 18.2986C15.4319 18.3784 15.3713 18.4504 15.2811 18.4643C14.4461 18.696 13.5174 19.5352 13.852 20.7393C14.2738 22.2598 16.1061 22.2008 16.304 22.1932C18.4176 22.1084 18.72 20.6082 18.6167 19.8713C18.5425 19.3421 18.2497 18.9355 17.7246 18.6646C17.5224 18.5697 17.3133 18.4858 17.0995 18.4124C17.05 18.3921 17.0114 18.3717 17.0114 18.3159C17.0114 18.3084 16.7443 10.6926 16.7443 10.685C16.7443 10.6407 16.7645 10.6257 16.8154 10.6257C20.071 10.7713 19.266 10.7722 19.6253 11.3774C19.6762 11.4647 19.7474 11.4734 19.8128 11.3873C19.8783 11.3012 19.8725 10.1177 19.8725 10.1113C19.8681 10.0037 19.8086 9.97117 19.6878 9.99016C19.5569 10.0168 19.4239 10.0332 19.2901 10.0421L19.2929 10.047C18.4681 10.0648 16.8255 10.0718 16.8182 10.0718C16.76 10.0718 16.7301 10.0582 16.7301 10.0025C16.6516 7.8553 16.6591 8.15994 16.6591 8.12323C16.6446 8.01308 16.7062 7.90687 16.8182 7.8537C17.4103 7.52579 17.4861 6.79229 16.9944 6.34284C16.7342 6.10451 16.388 6.01743 16.0596 6.04858ZM16.1647 6.57281C16.8863 6.57407 16.8529 7.51016 16.159 7.50257C15.4652 7.49497 15.4592 6.57528 16.1647 6.57528V6.57281ZM5.98467 9.38186C5.67571 9.39622 5.34913 9.43245 4.99309 9.50303C2.85177 9.92589 1.91003 11.6473 2.10642 13.2641C2.58356 17.2724 8.69828 16.4662 8.80884 15.8926C8.81029 15.88 8.9251 15.3744 9.05602 14.6958C9.06184 14.6743 9.06177 14.6531 9.05886 14.6315C9.04431 14.5391 8.94628 14.473 8.84009 14.4856C8.42113 14.5021 9.01238 15.6387 7.05581 15.7641C4.39225 15.935 3.15005 14.0793 3.17187 12.5841C3.22715 8.95305 8.30776 9.59506 8.53324 10.9966C8.56088 11.1738 8.52642 11.5579 8.81736 11.4516C8.88573 11.4262 8.93094 11.3702 8.93385 11.3057C8.93967 11.2538 9.01022 10.1718 9.02477 9.85911C9.0335 9.68566 8.96121 9.62835 8.76338 9.60936C7.69635 9.50396 6.91157 9.33878 5.98467 9.38186ZM25.3532 11.3452C25.3201 11.3503 25.2891 11.3663 25.268 11.3922C25.1705 11.4821 25.2488 11.3602 23.944 13.9936C23.8494 14.1873 23.7561 14.3749 23.6485 14.5623C23.5685 14.7016 23.4041 14.785 23.2251 14.7774C23.0564 14.7812 23.0696 14.9777 23.2791 14.9777H25.1714C25.4492 14.9777 25.3384 14.7807 25.1231 14.7453C24.8118 14.6921 24.1563 14.8106 24.248 14.6093C24.3513 14.3776 24.4584 14.1485 24.5719 13.9219C24.5966 13.8864 24.6404 13.8626 24.6884 13.8576C25.0375 13.8411 25.3876 13.8374 25.7368 13.8526C25.8037 13.8488 25.8642 13.8859 25.8817 13.9416C25.9777 14.1543 26.0739 14.3694 26.1772 14.5796C26.311 14.8518 26.0209 14.8903 26.2027 14.9283C26.2871 14.9511 26.3754 14.9677 26.4641 14.9753C26.6721 14.9803 25.6872 14.966 30.1066 14.9926C30.4993 14.9951 30.4 14.7928 30.4873 14.3472L30.4816 14.3447C30.5107 14.1991 30.331 13.9962 30.2117 14.3571C30.1346 14.5976 30.0152 14.5963 29.0638 14.5697C28.9547 14.5773 28.8527 14.5101 28.8309 14.4164C28.7974 14.2721 28.8066 11.9435 28.811 11.8423C28.8095 11.8347 28.811 11.8251 28.811 11.8175C28.8153 11.7289 28.8995 11.6604 29.0013 11.6642C29.4712 11.6212 29.2567 11.4491 29.0894 11.4491C27.4674 11.4428 27.547 11.4463 27.5324 11.459C27.3549 11.6109 27.5192 11.6494 27.5381 11.6494C27.7679 11.6823 27.9359 11.6379 27.9359 11.9164C27.9373 14.5676 27.9388 14.3791 27.933 14.4955C27.9228 14.6943 27.8936 14.7702 27.6347 14.7626C27.5896 14.7626 27.3213 14.8049 27.1773 14.6365C26.802 14.1858 25.692 11.6011 25.4811 11.3922C25.4723 11.3821 25.4629 11.3726 25.4498 11.365C25.42 11.3467 25.3863 11.3402 25.3532 11.3452ZM21.7278 11.3848C21.1154 11.3807 20.4007 11.492 19.8981 11.9313C19.1911 12.5478 18.8839 14.0662 20.3925 14.7651C21.3467 15.2069 22.6244 14.9879 22.7393 14.9753C23.2106 14.9221 23.1683 14.1854 23.1683 14.179C23.1058 13.9954 23.0326 14.0288 22.9439 14.1098C22.8697 14.1769 22.8743 14.4693 22.4495 14.5846C21.9563 14.7188 20.7973 14.6875 20.3754 13.724C19.9695 12.8011 20.4406 11.3512 22.3273 11.8348C22.6517 11.9184 22.8424 12.106 22.87 12.4061C22.8845 12.5554 23.0635 12.5626 23.1115 12.4234C23.126 12.3803 23.128 12.1492 23.1513 11.8175C23.1644 11.6365 23.1142 11.5637 22.9382 11.5257H22.9353C22.8488 11.5068 22.3403 11.3889 21.7278 11.3848ZM14.7839 11.4565L13.4144 11.4615C13.1773 11.5298 13.1791 11.6501 13.4627 11.6716C13.6693 11.6868 13.6957 11.7437 13.6957 12.097C13.6826 14.9279 13.6834 14.42 13.6616 14.634C13.6587 14.7087 13.5883 14.7688 13.5025 14.7675C13.2349 14.7903 12.9828 14.7432 12.7922 14.5697C12.0474 13.8911 11.619 13.4129 11.5506 13.3408C11.7048 13.1964 11.8498 13.0609 11.9938 12.9204C12.6252 12.295 12.0526 11.5731 11.4227 11.506C10.8903 11.449 10.1158 11.4551 9.26627 11.4615C9.12225 11.4627 8.8425 11.6261 9.34582 11.6716C9.54657 11.6894 9.58448 11.7668 9.58448 11.9807C9.58303 12.1111 9.56446 12.879 9.57028 14.4881C9.57319 14.9287 9.31998 14.6372 9.14978 14.8714C9.17451 14.9423 9.25431 14.989 9.34014 14.9827H10.738C11.0093 14.9796 11.0098 14.7563 10.6727 14.7626C10.3861 14.7702 10.4483 14.689 10.3857 13.6597C10.3784 13.5357 10.8589 13.5453 10.9738 13.682C11.7448 14.5961 11.946 14.9827 12.7127 14.9827C13.4575 14.9789 14.201 14.9853 14.9459 14.9802C15.2237 14.9777 15.1248 14.7675 14.9459 14.7675C14.5982 14.7726 14.5866 14.6834 14.5793 14.6315C14.5546 14.4695 14.532 14.7021 14.5509 11.956C14.5553 11.7294 14.5789 11.6832 14.8379 11.6667C14.8437 11.6667 14.8549 11.6692 14.8549 11.6667C15.1066 11.4882 14.8072 11.4565 14.7839 11.4565ZM17.4404 11.4615C17.3139 11.464 17.2273 11.5796 17.412 11.6568C17.5168 11.6998 17.7501 11.6036 17.7501 11.9214C17.7385 14.8675 17.8287 14.7675 17.5058 14.7675C17.2628 14.7688 17.2294 14.9777 17.5058 14.9777C18.0746 14.9815 18.5916 14.9827 19.0571 14.9827C19.2433 14.9814 19.2504 14.7739 19.0628 14.7675C18.8373 14.7599 18.6353 14.7995 18.6309 14.545H18.6281C18.5742 11.9091 18.6309 11.8203 18.6309 11.8076C18.6513 11.6355 18.8579 11.6848 18.9292 11.6519C19.0936 11.5759 19.0303 11.5131 18.9605 11.4738C18.8907 11.4358 17.5335 11.4615 17.4404 11.4615ZM10.5505 11.8151C10.8115 11.7671 11.3492 11.8627 11.4398 12.3887C11.466 12.5356 11.5423 13.3119 10.5647 13.2245C10.4381 13.2131 10.4113 13.1765 10.4113 13.0638C10.4069 12.7574 10.4113 12.1827 10.4084 11.9016C10.4077 11.8643 10.4635 11.831 10.5505 11.8151ZM25.2197 12.4728L25.6572 13.4619H24.7708C24.9206 13.1327 25.064 12.8159 25.2197 12.4728ZM9.96805 17.1241C10.2368 17.1291 10.5239 17.1725 10.596 17.1908C11.6826 17.4668 11.9215 18.7151 11.4909 19.6191C11.1578 20.3104 10.479 20.1475 9.64983 20.0741C9.47818 20.0614 9.45379 20.038 9.45379 19.8886C9.45379 18.0123 9.45531 17.7886 9.45095 17.2873C9.44877 17.1537 9.69929 17.119 9.96805 17.1241ZM25.5947 18.1181C24.943 18.1827 25.5032 18.1476 22.924 18.1577C22.6505 18.159 22.6626 18.3704 22.9666 18.3704L22.9723 18.3753C23.2487 18.3753 23.4253 18.0692 23.2507 21.5825C23.2391 21.7762 23.0338 21.7318 22.9552 21.7432C22.7807 21.771 22.7432 21.9267 22.9382 21.9583C22.9862 21.9659 22.7989 21.973 25.4669 21.9781C25.7898 21.9781 25.7993 21.8501 25.7993 21.8273C25.8269 21.626 25.8582 21.424 25.8902 21.2239C25.9135 21.0771 25.7197 21.0412 25.6601 21.1893C25.5146 21.5463 25.6753 21.5758 24.481 21.5454C24.1464 21.5365 24.2025 21.295 24.2025 20.5291C24.2025 19.9948 24.0217 20.1 25.1288 20.1557C25.395 20.1696 25.3115 20.3617 25.3958 20.487C25.4453 20.5617 25.5427 20.5483 25.5805 20.4673C25.6096 20.4027 25.6629 19.7678 25.6629 19.7551C25.6789 19.5335 25.4776 19.6337 25.4441 19.6438C25.0572 19.7603 24.5402 19.7251 24.3162 19.7403C24.1998 19.7479 24.1997 19.7488 24.1997 19.6463V18.6399C24.1997 18.5449 24.2027 18.5396 24.3162 18.5434C25.285 18.5827 25.4136 18.5307 25.4413 18.8624C25.4558 19.0346 25.6682 19.0078 25.6856 18.8723C25.7104 18.6609 25.7377 18.4483 25.7567 18.2368C25.7654 18.1343 25.7155 18.1067 25.5947 18.1181ZM20.9039 18.1552C20.5358 18.154 19.3493 18.1564 19.2446 18.1577C19.0759 18.1577 19.0416 18.3339 19.219 18.358C19.4256 18.3858 19.6093 18.3549 19.6282 18.5904C19.6442 18.7879 19.6739 20.5862 19.6026 21.5775C19.5895 21.7776 19.3773 21.7227 19.2332 21.7531C19.1154 21.7771 19.1263 21.9493 19.2645 21.9633L22.0063 21.9756C22.0921 21.9756 22.4032 22.0524 22.3785 21.2017C22.3785 21.1865 22.3133 20.9944 22.1824 21.1349C21.906 21.4286 22.4098 21.6065 20.83 21.5305C20.6656 21.5229 20.5901 21.4461 20.5828 21.303C20.5406 20.5282 20.5544 18.8369 20.5544 18.7116C20.5544 18.3432 20.7276 18.3906 20.9152 18.3704C21.1669 18.3438 21.1395 18.1552 20.9039 18.1552ZM15.3948 18.7685C15.4151 18.8938 15.321 21.106 15.3152 21.2313C15.289 21.7542 17.1498 22.0162 17.1251 21.3945C17.1236 21.3654 17.0483 19.0819 17.0483 18.949V18.9465L17.0739 18.9391C17.9555 19.5341 17.8152 20.8923 17.4632 21.3772C17.1286 21.852 16.4427 22.0414 15.855 21.8199C14.3567 21.283 14.3823 19.2331 15.3948 18.7685ZM17.3552 24.6363C31.1996 24.6414 30.3805 24.627 30.3907 24.6536C29.2836 25.212 17.4364 31.0747 16.2159 31.6862C16.1446 31.7279 16.0513 31.7279 15.9801 31.6862H15.9744C14.7059 31.0493 2.0866 24.7401 1.90185 24.6388H15.0396C15.1836 24.6388 15.1845 24.6409 15.1845 24.7624C15.1321 26.7539 15.0882 27.6087 15.0765 27.7619C15.0635 27.9936 15.111 28.2255 15.2186 28.437C15.527 29.0788 15.821 29.7299 16.1221 30.3756C16.1948 30.5187 16.2146 30.4882 16.267 30.3806C17.2635 28.3346 17.1966 28.4792 17.2359 28.3653C17.2941 28.2083 17.3252 28.0464 17.3325 27.8831C17.3354 27.5159 17.2444 24.7416 17.2444 24.7352C17.2415 24.6605 17.2679 24.6363 17.3552 24.6363Z" fill="#FF0000"/>
</svg>
